<?xml version="1.0" encoding="UTF-8"?> <svg xmlns="http://www.w3.org/2000/svg" width="1930" height="841" viewBox="0 0 1930 841" fill="none"> <path d="M1714 406C1714 420.183 1716.79 434.227 1722.22 447.33C1727.65 460.433 1735.6 472.339 1745.63 482.367C1755.66 492.396 1767.57 500.351 1780.67 505.779C1793.77 511.206 1807.82 514 1822 514" stroke="black" stroke-width="4" stroke-linecap="round" stroke-dasharray="20 20"></path> <path d="M1716 383.107C1716 382.003 1715.1 381.107 1714 381.107C1712.9 381.107 1712 382.003 1712 383.107L1716 383.107ZM1712 363.321C1712 364.426 1712.9 365.321 1714 365.321C1715.1 365.321 1716 364.426 1716 363.321L1712 363.321ZM1716 343.536C1716 342.431 1715.1 341.536 1714 341.536C1712.9 341.536 1712 342.431 1712 343.536L1716 343.536ZM1712 323.75C1712 324.855 1712.9 325.75 1714 325.75C1715.1 325.75 1716 324.855 1716 323.75L1712 323.75ZM1716 303.964C1716 302.86 1715.1 301.964 1714 301.964C1712.9 301.964 1712 302.86 1712 303.964L1716 303.964ZM1712 284.179C1712 285.283 1712.9 286.179 1714 286.179C1715.1 286.179 1716 285.283 1716 284.179L1712 284.179ZM1716 264.393C1716 263.288 1715.1 262.393 1714 262.393C1712.9 262.393 1712 263.288 1712 264.393L1716 264.393ZM1712 244.607C1712 245.712 1712.9 246.607 1714 246.607C1715.1 246.607 1716 245.712 1716 244.607L1712 244.607ZM1716 224.822C1716 223.717 1715.1 222.822 1714 222.822C1712.9 222.822 1712 223.717 1712 224.822L1716 224.822ZM1712 205.036C1712 206.14 1712.9 207.036 1714 207.036C1715.1 207.036 1716 206.14 1716 205.036L1712 205.036ZM1716 185.25C1716 184.146 1715.1 183.25 1714 183.25C1712.9 183.25 1712 184.146 1712 185.25L1716 185.25ZM1712 165.464C1712 166.569 1712.9 167.464 1714 167.464C1715.1 167.464 1716 166.569 1716 165.464L1712 165.464ZM1716 145.679C1716 144.574 1715.1 143.679 1714 143.679C1712.9 143.679 1712 144.574 1712 145.679L1716 145.679ZM1712 125.893C1712 126.998 1712.9 127.893 1714 127.893C1715.1 127.893 1716 126.998 1716 125.893L1712 125.893ZM1716 393L1716 383.107L1712 383.107L1712 393L1716 393ZM1716 363.321L1716 343.536L1712 343.536L1712 363.321L1716 363.321ZM1716 323.75L1716 303.964L1712 303.964L1712 323.75L1716 323.75ZM1716 284.179L1716 264.393L1712 264.393L1712 284.179L1716 284.179ZM1716 244.607L1716 224.822L1712 224.822L1712 244.607L1716 244.607ZM1716 205.036L1716 185.25L1712 185.25L1712 205.036L1716 205.036ZM1716 165.464L1716 145.679L1712 145.679L1712 165.464L1716 165.464ZM1716 125.893L1716 116L1712 116L1712 125.893L1716 125.893Z" fill="black"></path> <path d="M1714 116C1714 101.817 1711.21 87.7734 1705.78 74.6702C1700.35 61.5671 1692.4 49.6612 1682.37 39.6325C1672.34 29.6038 1660.43 21.6486 1647.33 16.2211C1634.23 10.7935 1620.18 8.00003 1606 8.00003" stroke="black" stroke-width="4" stroke-linecap="round" stroke-linejoin="round" stroke-dasharray="10 10"></path> <path d="M1439 8.00002C1424.82 8.00002 1410.77 10.7935 1397.67 16.221C1384.57 21.6485 1372.66 29.6037 1362.63 39.6325C1352.6 49.6612 1344.65 61.567 1339.22 74.6702C1333.79 87.7734 1331 101.817 1331 116" stroke="black" stroke-width="4" stroke-linecap="round" stroke-linejoin="round" stroke-dasharray="10 10"></path> <path d="M1333 707.95C1333 706.845 1332.1 705.95 1331 705.95C1329.9 705.95 1329 706.845 1329 707.95L1333 707.95ZM1329 687.85C1329 688.955 1329.9 689.85 1331 689.85C1332.1 689.85 1333 688.955 1333 687.85L1329 687.85ZM1333 667.75C1333 666.645 1332.1 665.75 1331 665.75C1329.9 665.75 1329 666.645 1329 667.75L1333 667.75ZM1329 647.65C1329 648.755 1329.9 649.65 1331 649.65C1332.1 649.65 1333 648.755 1333 647.65L1329 647.65ZM1333 627.55C1333 626.445 1332.1 625.55 1331 625.55C1329.9 625.55 1329 626.445 1329 627.55L1333 627.55ZM1329 607.45C1329 608.555 1329.9 609.45 1331 609.45C1332.1 609.45 1333 608.555 1333 607.45L1329 607.45ZM1333 587.35C1333 586.245 1332.1 585.35 1331 585.35C1329.9 585.35 1329 586.245 1329 587.35L1333 587.35ZM1329 567.25C1329 568.355 1329.9 569.25 1331 569.25C1332.1 569.25 1333 568.355 1333 567.25L1329 567.25ZM1333 547.15C1333 546.045 1332.1 545.15 1331 545.15C1329.9 545.15 1329 546.045 1329 547.15L1333 547.15ZM1329 527.05C1329 528.155 1329.9 529.05 1331 529.05C1332.1 529.05 1333 528.155 1333 527.05L1329 527.05ZM1333 506.95C1333 505.845 1332.1 504.95 1331 504.95C1329.9 504.95 1329 505.845 1329 506.95L1333 506.95ZM1329 486.85C1329 487.955 1329.9 488.85 1331 488.85C1332.1 488.85 1333 487.955 1333 486.85L1329 486.85ZM1333 466.75C1333 465.645 1332.1 464.75 1331 464.75C1329.9 464.75 1329 465.645 1329 466.75L1333 466.75ZM1329 446.65C1329 447.755 1329.9 448.65 1331 448.65C1332.1 448.65 1333 447.755 1333 446.65L1329 446.65ZM1333 426.55C1333 425.445 1332.1 424.55 1331 424.55C1329.9 424.55 1329 425.445 1329 426.55L1333 426.55ZM1329 406.45C1329 407.555 1329.9 408.45 1331 408.45C1332.1 408.45 1333 407.555 1333 406.45L1329 406.45ZM1333 386.35C1333 385.245 1332.1 384.35 1331 384.35C1329.9 384.35 1329 385.245 1329 386.35L1333 386.35ZM1329 366.25C1329 367.354 1329.9 368.25 1331 368.25C1332.1 368.25 1333 367.354 1333 366.25L1329 366.25ZM1333 346.15C1333 345.045 1332.1 344.15 1331 344.15C1329.9 344.15 1329 345.045 1329 346.15L1333 346.15ZM1329 326.05C1329 327.155 1329.9 328.05 1331 328.05C1332.1 328.05 1333 327.155 1333 326.05L1329 326.05ZM1333 305.95C1333 304.845 1332.1 303.95 1331 303.95C1329.9 303.95 1329 304.845 1329 305.95L1333 305.95ZM1329 285.85C1329 286.954 1329.9 287.85 1331 287.85C1332.1 287.85 1333 286.954 1333 285.85L1329 285.85ZM1333 265.75C1333 264.645 1332.1 263.75 1331 263.75C1329.9 263.75 1329 264.645 1329 265.75L1333 265.75ZM1329 245.65C1329 246.754 1329.9 247.65 1331 247.65C1332.1 247.65 1333 246.754 1333 245.65L1329 245.65ZM1333 225.55C1333 224.445 1332.1 223.55 1331 223.55C1329.9 223.55 1329 224.445 1329 225.55L1333 225.55ZM1329 205.45C1329 206.554 1329.9 207.45 1331 207.45C1332.1 207.45 1333 206.554 1333 205.45L1329 205.45ZM1333 185.35C1333 184.245 1332.1 183.35 1331 183.35C1329.9 183.35 1329 184.245 1329 185.35L1333 185.35ZM1329 165.25C1329 166.354 1329.9 167.25 1331 167.25C1332.1 167.25 1333 166.354 1333 165.25L1329 165.25ZM1333 145.15C1333 144.045 1332.1 143.15 1331 143.15C1329.9 143.15 1329 144.045 1329 145.15L1333 145.15ZM1329 125.05C1329 126.155 1329.9 127.05 1331 127.05C1332.1 127.05 1333 126.155 1333 125.05L1329 125.05ZM1333 718L1333 707.95L1329 707.95L1329 718L1333 718ZM1333 687.85L1333 667.75L1329 667.75L1329 687.85L1333 687.85ZM1333 647.65L1333 627.55L1329 627.55L1329 647.65L1333 647.65ZM1333 607.45L1333 587.35L1329 587.35L1329 607.45L1333 607.45ZM1333 567.25L1333 547.15L1329 547.15L1329 567.25L1333 567.25ZM1333 527.05L1333 506.95L1329 506.95L1329 527.05L1333 527.05ZM1333 486.85L1333 466.75L1329 466.75L1329 486.85L1333 486.85ZM1333 446.65L1333 426.55L1329 426.55L1329 446.65L1333 446.65ZM1333 406.45L1333 386.35L1329 386.35L1329 406.45L1333 406.45ZM1333 366.25L1333 346.15L1329 346.15L1329 366.25L1333 366.25ZM1333 326.05L1333 305.95L1329 305.95L1329 326.05L1333 326.05ZM1333 285.85L1333 265.75L1329 265.75L1329 285.85L1333 285.85ZM1333 245.65L1333 225.55L1329 225.55L1329 245.65L1333 245.65ZM1333 205.45L1333 185.35L1329 185.35L1329 205.45L1333 205.45ZM1333 165.25L1333 145.15L1329 145.15L1329 165.25L1333 165.25ZM1333 125.05L1333 115L1329 115L1329 125.05L1333 125.05Z" fill="black"></path> <path d="M1223 837C1237.18 837 1251.23 834.206 1264.33 828.779C1277.43 823.351 1289.34 815.396 1299.37 805.368C1309.4 795.339 1317.35 783.433 1322.78 770.33C1328.21 757.227 1331 743.183 1331 729" stroke="black" stroke-width="4" stroke-linecap="round" stroke-linejoin="round" stroke-dasharray="10 10"></path> <path d="M958 729C958 743.183 960.794 757.227 966.221 770.33C971.649 783.433 979.604 795.339 989.632 805.367C999.661 815.396 1011.57 823.351 1024.67 828.779C1037.77 834.206 1051.82 837 1066 837" stroke="black" stroke-width="4" stroke-linecap="round" stroke-linejoin="round" stroke-dasharray="10 10"></path> <path d="M960 707.975C960 706.87 959.105 705.975 958 705.975C956.895 705.975 956 706.87 956 707.975L960 707.975ZM956 697.925C956 699.03 956.895 699.925 958 699.925C959.105 699.925 960 699.03 960 697.925L956 697.925ZM960 687.875C960 686.77 959.105 685.875 958 685.875C956.895 685.875 956 686.77 956 687.875L960 687.875ZM956 677.825C956 678.93 956.895 679.825 958 679.825C959.105 679.825 960 678.93 960 677.825L956 677.825ZM960 667.775C960 666.67 959.105 665.775 958 665.775C956.895 665.775 956 666.67 956 667.775L960 667.775ZM956 657.725C956 658.83 956.895 659.725 958 659.725C959.105 659.725 960 658.83 960 657.725L956 657.725ZM960 647.675C960 646.57 959.105 645.675 958 645.675C956.895 645.675 956 646.57 956 647.675L960 647.675ZM956 637.625C956 638.73 956.895 639.625 958 639.625C959.105 639.625 960 638.73 960 637.625L956 637.625ZM960 627.575C960 626.47 959.105 625.575 958 625.575C956.895 625.575 956 626.47 956 627.575L960 627.575ZM956 617.525C956 618.63 956.895 619.525 958 619.525C959.105 619.525 960 618.63 960 617.525L956 617.525ZM960 607.475C960 606.37 959.105 605.475 958 605.475C956.895 605.475 956 606.37 956 607.475L960 607.475ZM956 597.425C956 598.53 956.895 599.425 958 599.425C959.105 599.425 960 598.53 960 597.425L956 597.425ZM960 587.375C960 586.27 959.105 585.375 958 585.375C956.895 585.375 956 586.27 956 587.375L960 587.375ZM956 577.325C956 578.43 956.895 579.325 958 579.325C959.105 579.325 960 578.43 960 577.325L956 577.325ZM960 567.275C960 566.17 959.105 565.275 958 565.275C956.895 565.275 956 566.17 956 567.275L960 567.275ZM956 557.225C956 558.33 956.895 559.225 958 559.225C959.105 559.225 960 558.33 960 557.225L956 557.225ZM960 547.175C960 546.07 959.105 545.175 958 545.175C956.895 545.175 956 546.07 956 547.175L960 547.175ZM956 537.125C956 538.23 956.895 539.125 958 539.125C959.105 539.125 960 538.23 960 537.125L956 537.125ZM960 527.075C960 525.97 959.105 525.075 958 525.075C956.895 525.075 956 525.97 956 527.075L960 527.075ZM956 517.025C956 518.13 956.895 519.025 958 519.025C959.105 519.025 960 518.13 960 517.025L956 517.025ZM960 506.975C960 505.87 959.105 504.975 958 504.975C956.895 504.975 956 505.87 956 506.975L960 506.975ZM956 496.925C956 498.03 956.895 498.925 958 498.925C959.105 498.925 960 498.03 960 496.925L956 496.925ZM960 486.875C960 485.77 959.105 484.875 958 484.875C956.895 484.875 956 485.77 956 486.875L960 486.875ZM956 476.825C956 477.93 956.895 478.825 958 478.825C959.105 478.825 960 477.93 960 476.825L956 476.825ZM960 466.775C960 465.67 959.105 464.775 958 464.775C956.895 464.775 956 465.67 956 466.775L960 466.775ZM956 456.725C956 457.829 956.895 458.725 958 458.725C959.105 458.725 960 457.829 960 456.725L956 456.725ZM960 446.675C960 445.57 959.105 444.675 958 444.675C956.895 444.675 956 445.57 956 446.675L960 446.675ZM956 436.625C956 437.73 956.895 438.625 958 438.625C959.105 438.625 960 437.73 960 436.625L956 436.625ZM960 426.575C960 425.47 959.105 424.575 958 424.575C956.895 424.575 956 425.47 956 426.575L960 426.575ZM956 416.525C956 417.63 956.895 418.525 958 418.525C959.105 418.525 960 417.63 960 416.525L956 416.525ZM960 406.475C960 405.37 959.105 404.475 958 404.475C956.895 404.475 956 405.37 956 406.475L960 406.475ZM956 396.425C956 397.53 956.895 398.425 958 398.425C959.105 398.425 960 397.53 960 396.425L956 396.425ZM960 386.375C960 385.27 959.105 384.375 958 384.375C956.895 384.375 956 385.27 956 386.375L960 386.375ZM956 376.325C956 377.43 956.895 378.325 958 378.325C959.105 378.325 960 377.43 960 376.325L956 376.325ZM960 366.275C960 365.17 959.105 364.275 958 364.275C956.895 364.275 956 365.17 956 366.275L960 366.275ZM956 356.225C956 357.33 956.895 358.225 958 358.225C959.105 358.225 960 357.33 960 356.225L956 356.225ZM960 346.175C960 345.07 959.105 344.175 958 344.175C956.895 344.175 956 345.07 956 346.175L960 346.175ZM956 336.125C956 337.23 956.895 338.125 958 338.125C959.105 338.125 960 337.23 960 336.125L956 336.125ZM960 326.075C960 324.971 959.105 324.075 958 324.075C956.895 324.075 956 324.971 956 326.075L960 326.075ZM956 316.025C956 317.13 956.895 318.025 958 318.025C959.105 318.025 960 317.13 960 316.025L956 316.025ZM960 305.975C960 304.871 959.105 303.975 958 303.975C956.895 303.975 956 304.871 956 305.975L960 305.975ZM956 295.925C956 297.03 956.895 297.925 958 297.925C959.105 297.925 960 297.03 960 295.925L956 295.925ZM960 285.875C960 284.771 959.105 283.875 958 283.875C956.895 283.875 956 284.771 956 285.875L960 285.875ZM956 275.825C956 276.93 956.895 277.825 958 277.825C959.105 277.825 960 276.93 960 275.825L956 275.825ZM960 265.775C960 264.671 959.105 263.775 958 263.775C956.895 263.775 956 264.671 956 265.775L960 265.775ZM956 255.725C956 256.83 956.895 257.725 958 257.725C959.105 257.725 960 256.83 960 255.725L956 255.725ZM960 245.675C960 244.571 959.105 243.675 958 243.675C956.895 243.675 956 244.571 956 245.675L960 245.675ZM956 235.625C956 236.73 956.895 237.625 958 237.625C959.105 237.625 960 236.73 960 235.625L956 235.625ZM960 225.575C960 224.471 959.105 223.575 958 223.575C956.895 223.575 956 224.471 956 225.575L960 225.575ZM956 215.525C956 216.63 956.895 217.525 958 217.525C959.105 217.525 960 216.63 960 215.525L956 215.525ZM960 205.475C960 204.371 959.105 203.475 958 203.475C956.895 203.475 956 204.371 956 205.475L960 205.475ZM956 195.425C956 196.53 956.895 197.425 958 197.425C959.105 197.425 960 196.53 960 195.425L956 195.425ZM960 185.375C960 184.271 959.105 183.375 958 183.375C956.895 183.375 956 184.271 956 185.375L960 185.375ZM956 175.325C956 176.43 956.895 177.325 958 177.325C959.105 177.325 960 176.43 960 175.325L956 175.325ZM960 165.275C960 164.171 959.105 163.275 958 163.275C956.895 163.275 956 164.171 956 165.275L960 165.275ZM956 155.225C956 156.33 956.895 157.225 958 157.225C959.105 157.225 960 156.33 960 155.225L956 155.225ZM960 145.175C960 144.071 959.105 143.175 958 143.175C956.895 143.175 956 144.071 956 145.175L960 145.175ZM956 135.125C956 136.23 956.895 137.125 958 137.125C959.105 137.125 960 136.23 960 135.125L956 135.125ZM960 125.075C960 123.971 959.105 123.075 958 123.075C956.895 123.075 956 123.971 956 125.075L960 125.075ZM956 115.025C956 116.13 956.895 117.025 958 117.025C959.105 117.025 960 116.13 960 115.025L956 115.025ZM960 713L960 707.975L956 707.975L956 713L960 713ZM960 697.925L960 687.875L956 687.875L956 697.925L960 697.925ZM960 677.825L960 667.775L956 667.775L956 677.825L960 677.825ZM960 657.725L960 647.675L956 647.675L956 657.725L960 657.725ZM960 637.625L960 627.575L956 627.575L956 637.625L960 637.625ZM960 617.525L960 607.475L956 607.475L956 617.525L960 617.525ZM960 597.425L960 587.375L956 587.375L956 597.425L960 597.425ZM960 577.325L960 567.275L956 567.275L956 577.325L960 577.325ZM960 557.225L960 547.175L956 547.175L956 557.225L960 557.225ZM960 537.125L960 527.075L956 527.075L956 537.125L960 537.125ZM960 517.025L960 506.975L956 506.975L956 517.025L960 517.025ZM960 496.925L960 486.875L956 486.875L956 496.925L960 496.925ZM960 476.825L960 466.775L956 466.775L956 476.825L960 476.825ZM960 456.725L960 446.675L956 446.675L956 456.725L960 456.725ZM960 436.625L960 426.575L956 426.575L956 436.625L960 436.625ZM960 416.525L960 406.475L956 406.475L956 416.525L960 416.525ZM960 396.425L960 386.375L956 386.375L956 396.425L960 396.425ZM960 376.325L960 366.275L956 366.275L956 376.325L960 376.325ZM960 356.225L960 346.175L956 346.175L956 356.225L960 356.225ZM960 336.125L960 326.075L956 326.075L956 336.125L960 336.125ZM960 316.025L960 305.975L956 305.975L956 316.025L960 316.025ZM960 295.925L960 285.875L956 285.875L956 295.925L960 295.925ZM960 275.825L960 265.775L956 265.775L956 275.825L960 275.825ZM960 255.725L960 245.675L956 245.675L956 255.725L960 255.725ZM960 235.625L960 225.575L956 225.575L956 235.625L960 235.625ZM960 215.525L960 205.475L956 205.475L956 215.525L960 215.525ZM960 195.425L960 185.375L956 185.375L956 195.425L960 195.425ZM960 175.325L960 165.275L956 165.275L956 175.325L960 175.325ZM960 155.225L960 145.175L956 145.175L956 155.225L960 155.225ZM960 135.125L960 125.075L956 125.075L956 135.125L960 135.125ZM960 115.025L960 110L956 110L956 115.025L960 115.025Z" fill="black"></path> <path d="M958 110C958 95.8173 955.206 81.7734 949.779 68.6702C944.351 55.567 936.396 43.6612 926.368 33.6325C916.339 23.6038 904.433 15.6485 891.33 10.221C878.227 4.79352 864.183 2.00001 850 2.00001" stroke="black" stroke-width="4" stroke-linecap="round" stroke-dasharray="20 20"></path> <path d="M696 2C681.817 2 667.773 4.7935 654.67 10.221C641.567 15.6485 629.661 23.6037 619.632 33.6325C609.604 43.6612 601.649 55.567 596.221 68.6702C590.794 81.7734 588 95.8172 588 110" stroke="black" stroke-width="4" stroke-linecap="round" stroke-linejoin="round" stroke-dasharray="20 20"></path> <path d="M590 702.95C590 701.845 589.105 700.95 588 700.95C586.895 700.95 586 701.845 586 702.95L590 702.95ZM586 682.85C586 683.955 586.895 684.85 588 684.85C589.105 684.85 590 683.955 590 682.85L586 682.85ZM590 662.75C590 661.645 589.105 660.75 588 660.75C586.895 660.75 586 661.645 586 662.75L590 662.75ZM586 642.65C586 643.755 586.895 644.65 588 644.65C589.105 644.65 590 643.755 590 642.65L586 642.65ZM590 622.55C590 621.445 589.105 620.55 588 620.55C586.895 620.55 586 621.445 586 622.55L590 622.55ZM586 602.45C586 603.555 586.895 604.45 588 604.45C589.105 604.45 590 603.555 590 602.45L586 602.45ZM590 582.35C590 581.245 589.105 580.35 588 580.35C586.895 580.35 586 581.245 586 582.35L590 582.35ZM586 562.25C586 563.355 586.895 564.25 588 564.25C589.105 564.25 590 563.355 590 562.25L586 562.25ZM590 542.15C590 541.045 589.105 540.15 588 540.15C586.895 540.15 586 541.045 586 542.15L590 542.15ZM586 522.05C586 523.155 586.895 524.05 588 524.05C589.105 524.05 590 523.155 590 522.05L586 522.05ZM590 501.95C590 500.845 589.105 499.95 588 499.95C586.895 499.95 586 500.845 586 501.95L590 501.95ZM586 481.85C586 482.955 586.895 483.85 588 483.85C589.105 483.85 590 482.955 590 481.85L586 481.85ZM590 461.75C590 460.645 589.105 459.75 588 459.75C586.895 459.75 586 460.645 586 461.75L590 461.75ZM586 441.65C586 442.755 586.895 443.65 588 443.65C589.105 443.65 590 442.755 590 441.65L586 441.65ZM590 421.55C590 420.445 589.105 419.55 588 419.55C586.895 419.55 586 420.445 586 421.55L590 421.55ZM586 401.45C586 402.555 586.895 403.45 588 403.45C589.105 403.45 590 402.555 590 401.45L586 401.45ZM590 381.35C590 380.245 589.105 379.35 588 379.35C586.895 379.35 586 380.245 586 381.35L590 381.35ZM586 361.25C586 362.354 586.895 363.25 588 363.25C589.105 363.25 590 362.354 590 361.25L586 361.25ZM590 341.15C590 340.045 589.105 339.15 588 339.15C586.895 339.15 586 340.045 586 341.15L590 341.15ZM586 321.05C586 322.155 586.895 323.05 588 323.05C589.105 323.05 590 322.155 590 321.05L586 321.05ZM590 300.95C590 299.845 589.105 298.95 588 298.95C586.895 298.95 586 299.845 586 300.95L590 300.95ZM586 280.85C586 281.954 586.895 282.85 588 282.85C589.105 282.85 590 281.954 590 280.85L586 280.85ZM590 260.75C590 259.645 589.105 258.75 588 258.75C586.895 258.75 586 259.645 586 260.75L590 260.75ZM586 240.65C586 241.754 586.895 242.65 588 242.65C589.105 242.65 590 241.754 590 240.65L586 240.65ZM590 220.55C590 219.445 589.105 218.55 588 218.55C586.895 218.55 586 219.445 586 220.55L590 220.55ZM586 200.45C586 201.554 586.895 202.45 588 202.45C589.105 202.45 590 201.554 590 200.45L586 200.45ZM590 180.35C590 179.245 589.105 178.35 588 178.35C586.895 178.35 586 179.245 586 180.35L590 180.35ZM586 160.25C586 161.354 586.895 162.25 588 162.25C589.105 162.25 590 161.354 590 160.25L586 160.25ZM590 140.15C590 139.045 589.105 138.15 588 138.15C586.895 138.15 586 139.045 586 140.15L590 140.15ZM586 120.05C586 121.155 586.895 122.05 588 122.05C589.105 122.05 590 121.155 590 120.05L586 120.05ZM590 713L590 702.95L586 702.95L586 713L590 713ZM590 682.85L590 662.75L586 662.75L586 682.85L590 682.85ZM590 642.65L590 622.55L586 622.55L586 642.65L590 642.65ZM590 602.45L590 582.35L586 582.35L586 602.45L590 602.45ZM590 562.25L590 542.15L586 542.15L586 562.25L590 562.25ZM590 522.05L590 501.95L586 501.95L586 522.05L590 522.05ZM590 481.85L590 461.75L586 461.75L586 481.85L590 481.85ZM590 441.65L590 421.55L586 421.55L586 441.65L590 441.65ZM590 401.45L590 381.35L586 381.35L586 401.45L590 401.45ZM590 361.25L590 341.15L586 341.15L586 361.25L590 361.25ZM590 321.05L590 300.95L586 300.95L586 321.05L590 321.05ZM590 280.85L590 260.75L586 260.75L586 280.85L590 280.85ZM590 240.65L590 220.55L586 220.55L586 240.65L590 240.65ZM590 200.45L590 180.35L586 180.35L586 200.45L590 200.45ZM590 160.25L590 140.15L586 140.15L586 160.25L590 160.25ZM590 120.05L590 110L586 110L586 120.05L590 120.05Z" fill="black"></path> <path d="M480 839C494.183 839 508.227 836.207 521.33 830.779C534.433 825.351 546.339 817.396 556.368 807.368C566.396 797.339 574.351 785.433 579.779 772.33C585.207 759.227 588 745.183 588 731" stroke="black" stroke-width="4" stroke-linecap="round" stroke-linejoin="round" stroke-dasharray="10 10"></path> <path d="M217 731C217 745.183 219.794 759.227 225.221 772.33C230.649 785.433 238.604 797.339 248.632 807.368C258.661 817.396 270.567 825.351 283.67 830.779C296.773 836.206 310.817 839 325 839" stroke="black" stroke-width="4" stroke-linecap="round" stroke-linejoin="round" stroke-dasharray="10 10"></path> <path d="M218 702.917C218 701.812 217.105 700.917 216 700.917C214.895 700.917 214 701.812 214 702.917L218 702.917ZM214 682.75C214 683.855 214.895 684.75 216 684.75C217.105 684.75 218 683.855 218 682.75L214 682.75ZM218 662.583C218 661.479 217.105 660.583 216 660.583C214.895 660.583 214 661.479 214 662.583L218 662.583ZM214 642.417C214 643.521 214.895 644.417 216 644.417C217.105 644.417 218 643.521 218 642.417L214 642.417ZM218 622.25C218 621.145 217.105 620.25 216 620.25C214.895 620.25 214 621.145 214 622.25L218 622.25ZM214 602.083C214 603.188 214.895 604.083 216 604.083C217.105 604.083 218 603.188 218 602.083L214 602.083ZM218 581.917C218 580.812 217.105 579.917 216 579.917C214.895 579.917 214 580.812 214 581.917L218 581.917ZM214 561.75C214 562.855 214.895 563.75 216 563.75C217.105 563.75 218 562.855 218 561.75L214 561.75ZM218 541.583C218 540.479 217.105 539.583 216 539.583C214.895 539.583 214 540.479 214 541.583L218 541.583ZM214 521.417C214 522.521 214.895 523.417 216 523.417C217.105 523.417 218 522.521 218 521.417L214 521.417ZM218 501.25C218 500.145 217.105 499.25 216 499.25C214.895 499.25 214 500.145 214 501.25L218 501.25ZM214 481.083C214 482.188 214.895 483.083 216 483.083C217.105 483.083 218 482.188 218 481.083L214 481.083ZM218 713L218 702.917L214 702.917L214 713L218 713ZM218 682.75L218 662.583L214 662.583L214 682.75L218 682.75ZM218 642.417L218 622.25L214 622.25L214 642.417L218 642.417ZM218 602.083L218 581.917L214 581.917L214 602.083L218 602.083ZM218 561.75L218 541.583L214 541.583L214 561.75L218 561.75ZM218 521.417L218 501.25L214 501.25L214 521.417L218 521.417ZM218 481.083L218 471L214 471L214 481.083L218 481.083Z" fill="black"></path> <path d="M216 448C216 433.817 213.206 419.773 207.779 406.67C202.351 393.567 194.396 381.661 184.368 371.632C174.339 361.604 162.433 353.649 149.33 348.221C136.227 342.794 122.183 340 108 340" stroke="black" stroke-width="4" stroke-linecap="round" stroke-dasharray="20 20"></path> </svg> 